<svg width="111" height="96" viewBox="0 0 111 96" fill="none" xmlns="http://www.w3.org/2000/svg">
<path fill-rule="evenodd" clip-rule="evenodd" d="M93.5575 65.3638C94.0265 65.0954 94.4164 64.7088 94.6881 64.2427C94.9597 63.7767 95.1037 63.2477 95.1054 62.7088L95.1609 44.9258C95.1626 44.3868 95.3065 43.8578 95.5782 43.3918C95.8499 42.9258 96.2398 42.5392 96.7087 42.2708L106.381 36.7334C106.85 36.4651 107.381 36.3243 107.922 36.3252C108.462 36.3261 108.993 36.4687 109.461 36.7386C109.929 37.0084 110.317 37.3962 110.588 37.8629C110.858 38.3296 111 38.8588 111 39.3976V71.7278C111 72.2683 110.857 72.7992 110.585 73.267C110.313 73.7348 109.922 74.1228 109.452 74.392L72.9486 95.2878C72.4823 95.5546 71.9542 95.6952 71.4165 95.6957C70.8789 95.6963 70.3505 95.5567 69.8837 95.2909L41.2365 78.9614C40.7646 78.6927 40.3723 78.3046 40.0994 77.8361C39.8265 77.3677 39.6826 76.8358 39.6825 76.2941V59.9923C39.6825 59.9739 39.7041 59.9616 39.7226 59.9708C39.738 59.98 39.7596 59.9708 39.7596 59.9493V59.9308C39.7596 59.9185 39.7657 59.9063 39.7781 59.9001L63.3717 46.3916C63.3933 46.3793 63.384 46.3455 63.3594 46.3455C63.3528 46.3455 63.3466 46.3429 63.3419 46.3383C63.3373 46.3337 63.3347 46.3274 63.3347 46.3209L63.381 30.3386C63.3831 29.7982 63.2422 29.2668 62.9725 28.7979C62.7028 28.3291 62.3137 27.9394 61.8446 27.6683C61.3755 27.3971 60.843 27.254 60.3007 27.2535C59.7584 27.253 59.2256 27.395 58.756 27.6652L41.2211 37.7352C40.7531 38.0037 40.2225 38.1451 39.6825 38.1451C39.1424 38.1451 38.6119 38.0037 38.1439 37.7352L20.5535 27.6406C20.0848 27.3717 19.5535 27.2303 19.0127 27.2307C18.4719 27.2311 17.9407 27.3732 17.4725 27.6428C17.0042 27.9124 16.6154 28.3 16.3449 28.7667C16.0744 29.2334 15.9319 29.7628 15.9316 30.3018V59.1872C15.9319 59.7256 15.7904 60.2546 15.521 60.7213C15.2517 61.188 14.8641 61.576 14.3969 61.8464C13.9298 62.1168 13.3996 62.2602 12.8594 62.2622C12.3192 62.2641 11.788 62.1246 11.3189 61.8576L1.55706 56.2956C1.08423 56.0264 0.691363 55.6372 0.418407 55.1677C0.145451 54.6981 0.0021431 54.1648 0.00305609 53.6221L0.0893894 3.13412C0.0905644 2.59588 0.233572 2.06738 0.504099 1.60154C0.774626 1.13569 1.16318 0.74883 1.63088 0.479679C2.09857 0.210527 2.629 0.0685263 3.16906 0.0678885C3.70913 0.0672507 4.23989 0.207999 4.70822 0.476044L38.147 19.6172C38.6142 19.8847 39.1436 20.0254 39.6825 20.0254C40.2213 20.0254 40.7507 19.8847 41.218 19.6172L74.6475 0.476044C75.1165 0.207611 75.6481 0.0668519 76.1889 0.0678957C76.7298 0.0689394 77.2608 0.211749 77.7288 0.481991C78.1968 0.752233 78.5852 1.1404 78.8551 1.60753C79.1249 2.07466 79.2667 2.60431 79.2663 3.14334V53.6437C79.2665 54.1839 79.1238 54.7146 78.8526 55.1823C78.5814 55.6501 78.1913 56.0383 77.7215 56.3079L60.2144 66.3563C59.7441 66.6265 59.3538 67.0156 59.0828 67.4843C58.8118 67.953 58.6697 68.4847 58.671 69.0256C58.6722 69.5666 58.8167 70.0976 59.0899 70.5651C59.3631 71.0325 59.7552 71.4198 60.2267 71.6878L69.8837 77.1668C70.3504 77.4316 70.8784 77.5703 71.4154 77.5693C71.9524 77.5682 72.4799 77.4273 72.9455 77.1607L93.5575 65.3638V65.3638ZM95.5833 20.0628C95.5837 20.6063 95.7288 21.1399 96.0036 21.6092C96.2784 22.0786 96.6732 22.4669 97.1478 22.7346C97.6223 23.0023 98.1596 23.1398 98.7048 23.1331C99.25 23.1263 99.7837 22.9756 100.251 22.6963L109.501 17.1651C109.958 16.8924 110.336 16.5065 110.599 16.045C110.861 15.5835 111 15.0621 111 14.5316V3.26011C110.999 2.71693 110.854 2.18372 110.579 1.71479C110.303 1.24586 109.909 0.857971 109.434 0.590636C108.96 0.3233 108.423 0.186073 107.878 0.192934C107.333 0.199794 106.799 0.350497 106.332 0.62969L97.0818 6.16094C96.6252 6.43364 96.2472 6.81951 95.9846 7.28101C95.722 7.7425 95.5837 8.26389 95.5833 8.79443V20.0659V20.0628Z" fill="#007FFF"/>
</svg>
